<?xml version="1.0" encoding="UTF-8" standalone="no"?><!DOCTYPE svg PUBLIC "-//W3C//DTD SVG 1.1//EN" "http://www.w3.org/Graphics/SVG/1.1/DTD/svg11.dtd"><svg width="100%" height="100%" viewBox="0 0 500 500" version="1.1" xmlns="http://www.w3.org/2000/svg" xmlns:xlink="http://www.w3.org/1999/xlink" xml:space="preserve" xmlns:serif="http://www.serif.com/" style="fill-rule:evenodd;clip-rule:evenodd;stroke-linejoin:round;stroke-miterlimit:2;"><rect id="Mesa-de-trabajo2" serif:id="Mesa de trabajo2" x="0" y="0" width="500" height="500" style="fill:none;"/><clipPath id="_clip1"><rect id="Mesa-de-trabajo21" serif:id="Mesa de trabajo2" x="0" y="0" width="500" height="500"/></clipPath><g clip-path="url(#_clip1)"><g><path d="M424.181,371.01c27.102,9.119 52.284,23.65 76.667,37.712c14.355,8.285 29.199,16.849 44.236,24.187c9.113,4.446 19.661,8.557 28.465,5.002c7.492,-2.974 12.358,-11.939 10.852,-19.986c-1.133,-6.043 -5.541,-11.912 -12.091,-16.104c-5.925,-3.793 -12.937,-6.009 -19.719,-8.152l-0.595,-0.19c-40.431,-12.799 -80.647,-27.92 -119.574,-44.964c-2.903,7.353 -5.821,14.879 -8.24,22.494Zm150.371,72.134c-10.495,3.663 -21.924,-0.706 -31.773,-5.515c-15.201,-7.418 -30.127,-16.029 -44.559,-24.355c-24.879,-14.353 -50.607,-29.195 -78.123,-38.078c-1.362,-0.442 -2.118,-1.891 -1.706,-3.262c2.885,-9.537 6.57,-18.847 10.137,-27.852c0.261,-0.665 0.788,-1.212 1.451,-1.482c0.661,-0.257 1.414,-0.278 2.062,0.008c39.531,17.42 80.422,32.848 121.539,45.864l0.594,0.187c7.107,2.245 14.459,4.571 20.968,8.738c7.767,4.968 13.023,12.098 14.423,19.558c1.978,10.568 -4.2,21.916 -14.075,25.842c-0.31,0.121 -0.622,0.237 -0.937,0.346Z" style="fill:#9b2147;fill-rule:nonzero;"/><path d="M63.814,285.318c18.571,53.063 37.316,101.781 55.446,148.915c19.036,49.478 37.031,96.254 54.614,147.084c70.74,-29.596 149.899,-57.114 225.183,-82.48c-37.791,-98.626 -74.315,-195.344 -105.982,-293.507c-69.298,21.104 -140.237,45.855 -229.26,79.987Zm109.359,301.984c-0.631,0.22 -1.323,0.194 -1.937,-0.081c-0.665,-0.297 -1.176,-0.856 -1.413,-1.543c-17.844,-51.767 -36.116,-99.269 -55.465,-149.558c-18.421,-47.884 -37.47,-97.4 -56.343,-151.477c-0.467,-1.338 0.211,-2.808 1.538,-3.317c91.325,-35.063 163.641,-60.282 234.465,-81.775c1.373,-0.414 2.826,0.345 3.266,1.709c32.084,99.73 69.23,197.987 107.659,298.254c0.256,0.668 0.228,1.412 -0.074,2.059c-0.307,0.645 -0.881,1.104 -1.542,1.37c-76.879,25.89 -157.953,54.018 -230,84.302l-0.153,0.057Z" style="fill:#9b2147;fill-rule:nonzero;"/><path d="M401.811,376.219c2.915,5.408 8.118,9.535 14.049,11.139c2.025,0.546 4.227,0.799 6.179,0.033c1.915,-0.75 3.331,-2.377 4.578,-4.012c8.004,-10.475 12.126,-23.328 16.107,-35.897c1.138,-3.602 2.293,-7.333 1.873,-11.09c-0.323,-2.88 -1.572,-5.609 -3.302,-7.936c-4.796,-6.449 -14.689,-9.522 -21.199,-4.809c-3.429,2.479 -5.32,6.513 -6.981,10.405c-4.519,10.613 -8.348,21.523 -11.443,32.635c-1.133,4.066 -2.116,8.636 0.138,9.533Z" style="fill:#f4e9ec;fill-rule:nonzero;"/><path d="M403.124,373.94c0.417,0.243 0.767,0.6 1,1.032c2.564,4.757 7.208,8.442 12.424,9.849c1.935,0.522 3.468,0.558 4.531,0.125c1.304,-0.51 2.429,-1.82 3.453,-3.16c7.819,-10.238 11.818,-22.875 15.688,-35.098c1.047,-3.312 2.132,-6.739 1.768,-10.006c-0.252,-2.229 -1.216,-4.532 -2.799,-6.656c-3.865,-5.204 -12.192,-8.126 -17.55,-4.255c-2.855,2.067 -4.516,5.583 -6.103,9.309c-4.459,10.468 -8.274,21.341 -11.334,32.313c-1.231,4.421 -1.209,5.999 -1.076,6.546Zm19.547,16.018c-2.132,0.744 -4.587,0.723 -7.495,-0.063c-6.327,-1.711 -11.991,-6.075 -15.295,-11.745c-3.461,-2.408 -1.713,-8.676 -0.741,-12.165c3.122,-11.196 7.012,-22.284 11.561,-32.963c1.813,-4.258 3.912,-8.652 7.857,-11.504c7.996,-5.783 19.506,-1.808 24.848,5.373c2.134,2.871 3.449,6.057 3.805,9.209c0.485,4.373 -0.826,8.518 -1.985,12.173c-3.817,12.065 -8.143,25.737 -16.519,36.7c-1.485,1.944 -3.207,3.883 -5.707,4.863l-0.33,0.122Z" style="fill:#9b2147;fill-rule:nonzero;"/><path d="M387.292,368.951c-39.907,57.035 -115.9,58.533 -153.368,18.451c-28.297,-30.272 -38.227,-65.652 -38.533,-79.013c-0.508,-22.195 3.667,-68.737 38.091,-94.741c41.714,-31.51 82.397,-27.731 104.486,-19.783c22.089,7.948 41.189,23.929 52.907,44.275c22.372,38.83 22.108,94.091 -3.584,130.811Zm-137.881,-195.797c-46.649,19.145 -76.766,70.009 -79.926,120.341c-3.16,50.329 22.245,101.487 64.252,129.389c27.59,18.324 73.834,26.043 122.95,2.555c34.313,-16.41 57.704,-50.734 67.895,-87.38c8.031,-28.883 8.662,-60.149 -0.656,-88.642c-9.313,-28.491 -59.879,-123.308 -174.515,-76.262Z" style="fill:#fff;fill-rule:nonzero;"/><path d="M387.292,368.951l0.018,-0.006l-0.018,0.006Zm-117.921,-171.864c-10.917,3.81 -22.498,9.738 -34.309,18.657c-34.745,26.252 -37.482,73.493 -37.045,92.587c0.279,12.309 9.894,47.398 37.826,77.275c17.345,18.555 44.261,28.46 72.006,26.498c30.788,-2.179 58.954,-18.457 77.292,-44.661c24.531,-35.062 25.986,-88.891 3.461,-127.991c-11.35,-19.704 -30.129,-35.418 -51.521,-43.117c-9.064,-3.259 -35.468,-10.5 -67.711,0.752Zm66.155,214.629c-8.744,3.052 -17.905,4.966 -27.304,5.629c-29.312,2.072 -57.8,-8.45 -76.218,-28.151c-27.926,-29.873 -38.889,-65.382 -39.239,-80.747c-0.455,-19.9 2.445,-69.182 39.132,-96.892c48.8,-36.865 94.209,-24.753 106.962,-20.161c22.544,8.112 42.335,24.671 54.293,45.432c23.494,40.782 21.935,96.981 -3.709,133.631c-13.658,19.52 -32.536,33.796 -53.917,41.258Zm-85.118,-236.134c-43.52,17.864 -74.989,65.313 -78.302,118.074c-3.117,49.648 21.644,99.513 63.083,127.039c25.36,16.844 70.284,26.313 120.364,2.374c31.27,-14.956 55.505,-46.198 66.497,-85.718c8.256,-29.695 8.038,-60.636 -0.621,-87.12c-6.646,-20.324 -28.328,-59.552 -67.437,-77.615c-30.077,-13.893 -64.927,-12.89 -103.584,2.966Zm90.853,259.066c-45.327,15.819 -85.268,6.171 -108.98,-9.577c-42.973,-28.544 -68.652,-80.255 -65.419,-131.742c3.438,-54.723 36.208,-103.997 81.554,-122.606c40.06,-16.438 76.321,-17.41 107.782,-2.878c40.747,18.82 63.315,59.615 70.225,80.751c9.106,27.859 9.345,59.037 0.688,90.164c-11.395,40.982 -36.652,73.439 -69.293,89.049c-5.585,2.67 -11.111,4.938 -16.556,6.839Z" style="fill:#9b2147;fill-rule:nonzero;"/><path d="M125.124,345.528c-1.335,0.466 -2.808,-0.211 -3.315,-1.542c-0.522,-1.355 0.155,-2.874 1.511,-3.393l38.68,-14.808c1.387,-0.569 2.875,0.158 3.394,1.514c0.519,1.356 -0.159,2.875 -1.515,3.391l-38.68,14.808l-0.075,0.029Z" style="fill:#9b2147;fill-rule:nonzero;"/><path d="M215.257,311.967c-0.768,0.268 -1.645,0.176 -2.366,-0.32c-1.19,-0.828 -1.486,-2.464 -0.659,-3.656l6.923,-9.971c0.477,-0.682 1.192,-1.718 2.461,-2.523c2.644,-1.68 5.772,-1.349 7.893,-0.956l11.503,2.133c2.227,-4.24 5.496,-8.497 9.555,-12.416c0.363,-0.345 1.12,-1.083 2.24,-1.474l0.041,-0.014c1.82,-0.619 3.333,0.021 3.98,0.295c3.688,1.555 8.184,2.525 13.071,2.829c2.967,-3.924 6.528,-7.757 10.591,-11.411c0.67,-0.606 1.599,-0.822 2.468,-0.577c4.499,1.269 8.728,2.857 12.564,4.723c1.305,0.635 1.85,2.206 1.214,3.508c-0.636,1.309 -2.206,1.85 -3.511,1.216c-3.163,-1.536 -6.619,-2.875 -10.296,-3.984c-3.734,3.467 -6.967,7.078 -9.628,10.758c-0.512,0.711 -1.347,1.116 -2.222,1.085c-6.046,-0.223 -11.683,-1.366 -16.293,-3.307l-0.298,-0.115l-0.266,0.249c-4.186,4.032 -7.415,8.413 -9.338,12.664c-0.5,1.101 -1.683,1.723 -2.873,1.502l-13.461,-2.498c-0.719,-0.134 -2.899,-0.545 -4.12,0.227c-0.345,0.218 -0.595,0.557 -0.96,1.082l-6.921,9.97c-0.331,0.474 -0.787,0.803 -1.293,0.98Z" style="fill:#9b2147;fill-rule:nonzero;"/><path d="M236.551,362.938c-0.806,0.281 -1.731,0.164 -2.46,-0.391c-1.155,-0.879 -1.378,-2.528 -0.498,-3.68l7.135,-9.366c0.482,-0.638 1.213,-1.601 2.475,-2.362c2.601,-1.58 5.642,-1.365 7.702,-1.063l11.455,1.658c2.329,-3.995 5.699,-8.029 9.849,-11.762c0.578,-0.522 1.245,-1.051 2.179,-1.377l0.047,-0.016c1.751,-0.601 3.214,-0.058 3.84,0.174c3.638,1.335 8.106,2.105 12.984,2.243c3.059,-3.717 6.707,-7.366 10.851,-10.852c0.636,-0.535 1.484,-0.74 2.295,-0.55c4.423,1.041 8.563,2.386 12.314,3.998c1.335,0.572 1.953,2.118 1.38,3.45c-0.575,1.336 -2.122,1.951 -3.452,1.378c-3.11,-1.336 -6.522,-2.475 -10.163,-3.397c-3.829,3.317 -7.166,6.76 -9.93,10.25c-0.498,0.631 -1.265,1.003 -2.074,0.995c-5.967,-0.032 -11.507,-0.928 -16.021,-2.586l-0.394,-0.12l-0.341,0.315c-4.253,3.831 -7.574,7.949 -9.597,11.912c-0.511,1.004 -1.607,1.566 -2.716,1.408l-13.26,-1.922c-0.731,-0.104 -2.932,-0.435 -4.226,0.355c-0.377,0.229 -0.636,0.552 -1.016,1.053l-7.137,9.367c-0.324,0.426 -0.752,0.726 -1.22,0.889Z" style="fill:#9b2147;fill-rule:nonzero;"/><path d="M280.44,408.415c-0.704,0.246 -1.51,0.191 -2.2,-0.218c-1.252,-0.735 -1.667,-2.345 -0.932,-3.597l6.533,-11.091c0.455,-0.772 1.14,-1.932 2.422,-2.813c3.037,-2.098 6.946,-1.08 8.233,-0.749l11.596,2.988c2.047,-4.702 5.134,-9.366 9.023,-13.614c0.369,-0.403 1.134,-1.238 2.327,-1.654l0.049,-0.017c1.926,-0.653 3.582,0.202 4.206,0.523c4.198,2.164 9.333,3.573 14.843,4.081c1.447,0.135 2.507,1.416 2.378,2.858c-0.135,1.447 -1.408,2.511 -2.858,2.378c-6.178,-0.572 -11.976,-2.177 -16.769,-4.646l-0.189,-0.094l-0.11,0.123c-4.041,4.409 -7.103,9.279 -8.85,14.082c-0.463,1.271 -1.815,1.981 -3.123,1.645l-13.837,-3.564c-1.908,-0.493 -3.233,-0.493 -3.94,-0.012c-0.306,0.208 -0.536,0.576 -0.876,1.154l-6.528,11.086c-0.33,0.559 -0.829,0.952 -1.397,1.15Z" style="fill:#9b2147;fill-rule:nonzero;"/><path d="M144.707,394.991c-1.341,0.468 -2.818,-0.221 -3.324,-1.558c-0.509,-1.356 0.176,-2.871 1.534,-3.384l35.743,-13.443c1.387,-0.429 2.874,0.175 3.387,1.533c0.51,1.359 -0.179,2.872 -1.537,3.385l-35.742,13.446l-0.061,0.021Z" style="fill:#9b2147;fill-rule:nonzero;"/><path d="M167.594,451.335c-1.318,0.46 -2.776,-0.193 -3.301,-1.501c-0.541,-1.345 0.11,-2.874 1.458,-3.416c16.93,-6.806 34.263,-13.263 51.505,-19.173c1.373,-0.469 2.868,0.262 3.337,1.632c0.471,1.369 -0.253,2.856 -1.617,3.332l-0.015,0.005c-17.159,5.878 -34.405,12.304 -51.251,19.077l-0.115,0.044Z" style="fill:#9b2147;fill-rule:nonzero;"/><path d="M187.655,508.815c-1.332,0.465 -2.804,-0.209 -3.316,-1.535c-0.521,-1.352 0.153,-2.873 1.508,-3.394c56.193,-21.664 117.072,-44.235 155.101,-57.507c1.367,-0.477 2.866,0.246 3.344,1.616c0.477,1.367 -0.246,2.866 -1.613,3.343c-37.979,13.254 -98.797,35.804 -154.945,57.449l-0.079,0.027Z" style="fill:#9b2147;fill-rule:nonzero;"/><path d="M333.79,406.759c-8.309,2.897 -17.014,4.714 -25.94,5.346c-27.745,1.962 -54.661,-7.943 -72.006,-26.498c-9.054,-9.684 -16.184,-19.919 -21.695,-29.747c-1.328,-2.731 -2.547,-5.513 -3.709,-8.319c-0.742,-1.108 -1.478,-2.225 -2.205,-3.345c-7.142,-15.697 -10.062,-29.16 -10.216,-35.864c-0.114,-4.927 -0.014,-11.72 0.789,-19.545c0.072,-0.028 0.144,-0.054 0.22,-0.08c1.271,-0.444 2.696,-0.429 4.023,0.27c1.303,0.629 2.325,1.763 2.804,3.143c1.051,2.59 2.133,5.168 3.174,7.768c1.292,2.861 2.434,5.367 3.504,7.673l-0.3,0.431c-0.827,1.193 -0.53,2.828 0.659,3.656c0.536,0.368 1.159,0.516 1.761,0.456c3.206,6.801 6.154,12.726 11.299,23.213c0.223,0.425 0.577,1.091 0.861,1.615c3.106,5.785 7.067,11.001 11.31,15.988l-4.529,5.947c-0.88,1.152 -0.657,2.801 0.498,3.68c0.729,0.555 1.654,0.673 2.46,0.391c0.468,-0.163 0.896,-0.463 1.22,-0.889l3.881,-5.094c0.895,1.003 1.795,2.001 2.693,2.995c5.694,6.396 10.173,11.646 19.529,18.706c4,3.58 16.575,8.952 23.906,11.256c-0.518,0.19 -1.028,0.447 -1.518,0.784c-1.282,0.881 -1.967,2.041 -2.422,2.813l-6.533,11.091c-0.735,1.252 -0.319,2.862 0.932,3.597c0.691,0.408 1.496,0.463 2.2,0.218c0.567,-0.198 1.067,-0.591 1.397,-1.15l6.528,-11.086c0.34,-0.579 0.57,-0.946 0.876,-1.154c0.118,-0.084 0.254,-0.151 0.408,-0.205c0.759,-0.265 1.942,-0.195 3.531,0.217l13.837,3.564c0.519,0.132 1.044,0.102 1.518,-0.063c0.721,-0.252 1.324,-0.815 1.605,-1.581c0.44,-1.208 0.961,-2.417 1.559,-3.621c8.503,-0.396 16.153,-2.328 17.645,-2.578c4.021,-0.924 9.547,-2.014 13.197,-2.69c1.369,-0.631 1.453,-0.82 2.747,-1.396c1.092,-0.743 2.262,-1.4 3.458,-1.817c1.987,-0.693 4.049,-0.721 5.971,0.644l0.058,-0.011l0.317,-0.065c0.332,-0.067 0.657,-0.109 0.975,-0.132c1.033,2.782 2.072,5.572 3.109,8.356c-7.848,5.555 -16.384,9.97 -25.387,13.112Z" style="fill:#f4e9ec;fill-rule:nonzero;"/><path d="M359.177,393.647c-1.037,-2.784 -2.076,-5.574 -3.109,-8.356c3.748,-0.274 6.677,2.274 7.068,5.414c-1.297,1.014 -2.616,1.993 -3.959,2.942Z" style="fill:#5c2335;fill-rule:nonzero;"/><path d="M324.57,412c-5.262,1.837 -10.636,3.297 -16.229,3.774c-12.103,0.804 -23.34,-4.098 -34.876,-7.176c-0.434,-0.064 -0.868,-0.121 -1.3,-0.199c-1.87,-0.326 -3.7,-0.804 -5.513,-1.342c-1.009,-0.18 -2.017,-0.337 -3.036,-0.461c-1.243,-0.206 -2.248,-0.831 -2.988,-1.679c-6.28,-2.661 -12.157,-6.372 -17.531,-10.485c-6.252,-5.085 -11.371,-11.395 -16.469,-17.594c-6.583,-8.099 -9.967,-16.058 -12.444,-20.902c-0.012,-0.025 -0.024,-0.05 -0.036,-0.076c5.512,9.827 12.641,20.063 21.695,29.747c17.345,18.555 44.261,28.46 72.006,26.498c8.926,-0.632 17.631,-2.449 25.94,-5.346c9.003,-3.142 17.539,-7.557 25.387,-13.112c1.343,-0.948 2.662,-1.928 3.959,-2.942c0.196,1.563 -0.24,3.275 -1.522,4.858c-0.661,0.789 -1.466,1.663 -4.95,4.097c-2.854,1.688 -5.878,3.167 -9.025,4.266c-2.185,0.762 -4.429,1.344 -6.72,1.68c0.305,-0.071 0.494,-0.11 0.63,-0.138c-0.162,0.031 -0.405,0.073 -0.712,0.121c-0.953,0.372 -1.958,0.775 -2.993,1.279c-4.395,1.733 -8.796,3.569 -13.275,5.132Zm-116.336,-67.804c-2.665,-4.112 -5.206,-8.299 -7.456,-12.66c-0.256,-0.361 -0.444,-0.729 -0.589,-1.1c-1.986,-2.025 -2.917,-5.46 -3.6,-8.099c-0.924,-4.096 -1.766,-8.24 -2.252,-12.407c-0.629,-2.943 0.57,-5.577 2.547,-6.998c-0.418,-1.796 -0.832,-3.59 -1.246,-5.377c-0.244,-0.652 -0.282,-1.275 -0.192,-1.858c-1.107,-2.929 0.764,-5.88 3.361,-6.91c-0.803,7.825 -0.903,14.618 -0.789,19.545c0.154,6.705 3.074,20.168 10.216,35.864Z" style="fill:#9b2147;fill-rule:nonzero;"/><path d="M214.652,312.104c-0.602,0.06 -1.225,-0.088 -1.761,-0.456c-1.19,-0.828 -1.486,-2.464 -0.659,-3.656l0.3,-0.431c0.735,1.591 1.433,3.086 2.121,4.543Z" style="fill-rule:nonzero;"/><path d="M236.551,362.938c-0.806,0.281 -1.731,0.164 -2.46,-0.391c-1.155,-0.879 -1.378,-2.528 -0.498,-3.68l4.529,-5.947c1.16,1.361 2.341,2.704 3.529,4.035l-3.881,5.094c-0.324,0.426 -0.752,0.726 -1.22,0.889Z" style="fill:#5c2335;fill-rule:nonzero;"/><path d="M280.44,408.415c-0.704,0.246 -1.51,0.191 -2.2,-0.218c-1.252,-0.735 -1.667,-2.345 -0.932,-3.597l6.533,-11.091c0.455,-0.772 1.14,-1.932 2.422,-2.813c0.489,-0.337 1,-0.594 1.518,-0.784c1.147,0.36 2.167,0.647 3.004,0.838c4.686,1.158 9.442,2.07 14.244,2.544l0.051,0.005c0.355,0.016 0.711,0.036 1.067,0.045c1.854,0.087 3.726,0.073 5.554,-0.01c-0.598,1.204 -1.119,2.414 -1.559,3.621c-0.28,0.767 -0.884,1.33 -1.605,1.581c-0.474,0.166 -0.999,0.195 -1.518,0.063l-13.837,-3.564c-1.589,-0.411 -2.772,-0.481 -3.531,-0.217c-0.154,0.054 -0.291,0.121 -0.408,0.205c-0.306,0.208 -0.536,0.576 -0.876,1.154l-6.528,11.086c-0.33,0.559 -0.829,0.952 -1.397,1.15Z" style="fill:#5c2335;fill-rule:nonzero;"/><path d="M443.081,378.948c-3.133,1.093 -7.023,-0.339 -8.352,-3.465c0.09,-0.172 0.183,-0.345 0.272,-0.519c2.966,1.168 5.912,2.391 8.834,3.665c-0.245,0.121 -0.498,0.229 -0.754,0.318Zm11.143,-21.145c-3.547,-1.467 -7.085,-2.957 -10.614,-4.457c0.071,-0.217 0.139,-0.434 0.21,-0.651c0.196,-0.186 0.409,-0.361 0.644,-0.522c0.498,-0.34 1.009,-0.597 1.524,-0.777c4.174,-1.457 8.614,2.12 8.237,6.406Z" style="fill:#9b2147;fill-rule:nonzero;"/><path d="M434.729,375.483c-0.377,-0.883 -0.546,-1.901 -0.436,-3.036c-0.007,-2.265 1.626,-4.131 2.496,-6.135c1.042,-1.979 2.037,-3.981 3.105,-5.943c1.598,-2.395 1.818,-5.693 3.926,-7.675c-0.071,0.217 -0.139,0.434 -0.21,0.651c-2.316,7.146 -4.96,14.624 -8.608,21.618c-0.089,0.175 -0.182,0.348 -0.272,0.519Z" style="fill:#9b2147;fill-rule:nonzero;"/></g></g></svg>