<?xml version="1.0" encoding="UTF-8" standalone="no"?><!DOCTYPE svg PUBLIC "-//W3C//DTD SVG 1.1//EN" "http://www.w3.org/Graphics/SVG/1.1/DTD/svg11.dtd"><svg width="100%" height="100%" viewBox="0 0 2949 1188" version="1.1" xmlns="http://www.w3.org/2000/svg" xmlns:xlink="http://www.w3.org/1999/xlink" xml:space="preserve" xmlns:serif="http://www.serif.com/" style="fill-rule:evenodd;clip-rule:evenodd;stroke-linejoin:round;stroke-miterlimit:2;"><rect id="Mesa-de-trabajo1" serif:id="Mesa de trabajo1" x="0" y="0" width="2948.077" height="1187.949" style="fill:none;"/><path d="M243.186,895.303c-8.028,-4.446 -18.151,-1.557 -22.597,6.463c-4.45,8.028 -1.55,18.139 6.463,22.589c8.02,4.462 18.139,1.569 22.589,-6.455c4.47,-8.02 1.573,-18.135 -6.455,-22.597" style="fill:#755472;fill-rule:nonzero;"/><path d="M658.781,559.244c8.02,4.462 18.135,1.569 22.589,-6.447c4.466,-8.028 1.565,-18.139 -6.455,-22.605c-8.028,-4.446 -18.155,-1.553 -22.597,6.471c-4.454,8.02 -1.553,18.127 6.463,22.581" style="fill:#755472;fill-rule:nonzero;"/><path d="M674.732,591.115l93.327,163.745l38.154,0l-102.678,-180.163c-4.528,-7.958 -14.658,-10.726 -22.605,-6.19c-7.958,4.528 -10.726,14.651 -6.198,22.605" style="fill:#755472;fill-rule:nonzero;"/><path d="M849.113,832.208l-36.971,0l3.286,5.77c6.51,11.431 6.443,25.575 -0.187,36.959c-6.58,11.33 -18.832,18.365 -31.972,18.365l-503.934,0c-9.153,0 -16.574,7.421 -16.574,16.574c0,9.153 7.421,16.574 16.574,16.574l503.934,0c24.921,0 48.156,-13.362 60.627,-34.849c10.559,-18.127 12.287,-40 5.217,-59.392" style="fill:#755472;fill-rule:nonzero;"/><path d="M1114.602,785.43c-4.446,-8.028 -14.573,-10.917 -22.597,-6.463c-8.024,4.458 -10.925,14.573 -6.455,22.597c4.45,8.024 14.573,10.905 22.589,6.455c8.016,-4.454 10.917,-14.573 6.463,-22.589" style="fill:#a8163d;fill-rule:nonzero;"/><path d="M617.699,259.463c8.02,-4.454 10.917,-14.565 6.471,-22.581c-4.45,-8.028 -14.58,-10.917 -22.605,-6.471c-8.016,4.466 -10.913,14.58 -6.447,22.605c4.446,8.016 14.565,10.909 22.581,6.447" style="fill:#a8163d;fill-rule:nonzero;"/><path d="M1055.852,776.962l-70.255,0l19.451,33.152l50.804,0c9.153,0 16.574,-7.421 16.574,-16.574c0,-9.153 -7.421,-16.574 -16.574,-16.574" style="fill:#a8163d;fill-rule:nonzero;"/><path d="M390.372,776.962c-13.148,0 -25.4,-7.043 -31.968,-18.365c-6.638,-11.384 -6.7,-25.536 -0.191,-36.959l243.713,-429.755c4.532,-7.958 1.764,-18.077 -6.186,-22.605c-7.958,-4.536 -18.077,-1.768 -22.612,6.19l-243.721,429.755c-12.342,21.655 -12.217,48.495 0.335,70.033c12.47,21.483 35.706,34.853 60.627,34.853l524.993,0l-19.451,-33.152l-505.538,0l0,0.004Z" style="fill:#a8163d;fill-rule:nonzero;"/><path d="M1037.343,926.449c-9.18,0.191 -16.445,7.802 -16.239,16.983c0.214,9.177 7.822,16.461 16.99,16.239c9.177,-0.218 16.438,-7.833 16.231,-16.998c-0.202,-9.173 -7.818,-16.445 -16.983,-16.223" style="fill:#5c2335;fill-rule:nonzero;"/><path d="M469.391,693.135c-9.177,0.199 -16.445,7.814 -16.239,16.998c0.214,9.177 7.826,16.445 16.998,16.223c9.169,-0.202 16.422,-7.814 16.223,-16.998c-0.202,-9.173 -7.814,-16.438 -16.983,-16.223" style="fill:#5c2335;fill-rule:nonzero;"/><path d="M1029.708,896.506l-285.746,-486.839c-12.591,-21.511 -35.865,-34.795 -60.708,-34.705c-24.925,0.062 -48.149,13.514 -60.588,35.114l-145.719,253.213c-4.575,7.942 -1.849,18.084 6.077,22.643c7.935,4.575 18.069,1.853 22.64,-6.085l145.711,-253.213c6.58,-11.396 18.812,-18.493 31.991,-18.524c13.089,-0.043 25.361,6.953 32.007,18.306l285.722,486.839c4.629,7.911 14.787,10.551 22.686,5.93c7.907,-4.625 10.547,-14.787 5.926,-22.679" style="fill:#5c2335;fill-rule:nonzero;"/><path d="M1091.861,502.308c0,15.577 -15.016,27.506 -35.219,27.506c-13.891,0 -23.854,-2.807 -34.658,-8.281c-1.121,-0.561 -1.542,-1.826 -0.981,-2.947l4.629,-9.963c0.557,-1.121 1.826,-1.686 2.947,-1.121c8.557,3.788 17.539,6.735 26.942,6.735c9.402,0 18.52,-4.629 18.52,-12.065c0,-23.294 -52.758,-10.524 -52.758,-45.322c0,-17.539 13.046,-27.923 31.291,-27.923c5.334,0 17.96,0.981 32.548,7.436c1.265,0.561 1.69,1.966 1.265,3.084l-4.629,10.243c-0.42,1.261 -1.826,1.686 -2.947,1.261c-7.012,-2.663 -17.683,-5.75 -23.15,-5.75c-9.262,0 -16.558,1.822 -17.119,10.66c0.284,19.642 53.323,8.281 53.323,46.443" style="fill:#444446;fill-rule:nonzero;"/><path d="M1144.475,435.879l0,87.4c0,2.986 -2.424,5.41 -5.41,5.41l-1.109,0c-2.986,0 -5.41,-2.424 -5.41,-5.41l0,-87.4c0,-2.986 2.424,-5.41 5.41,-5.41l1.109,0c2.986,0 5.41,2.424 5.41,5.41Z" style="fill:#444446;"/><path d="M1197.845,453.478c0,24.699 56.546,12.069 56.546,49.675c0,15.016 -14.176,27.078 -34.378,27.078c-13.611,0 -22.733,-2.663 -32.972,-7.572c-0.981,-0.557 -1.405,-1.826 -0.981,-2.947c0.981,-1.966 1.822,-3.784 2.803,-5.61c0.42,-1.121 1.686,-1.546 2.807,-1.121c8.281,3.504 17.263,6.175 27.222,6.175c11.929,0 22.032,-6.175 22.729,-15.721c2.25,-27.923 -54.436,-13.747 -55.986,-48.121c-0.701,-17.827 12.77,-26.381 30.029,-26.381c5.334,0 17.263,1.121 30.87,6.455c1.121,0.42 1.686,1.686 1.261,2.807c-0.837,2.243 -1.402,4.069 -2.106,6.035c-0.42,1.121 -1.682,1.686 -2.803,1.258c-7.016,-2.243 -17.543,-5.19 -26.802,-5.19c-9.258,0 -17.827,3.508 -18.244,13.05l0,0.136l0.004,-0.004Z" style="fill:#444446;fill-rule:nonzero;"/><path d="M1315.298,440.572l-27.218,0c-1.125,0 -2.106,-0.981 -2.106,-2.106l0,-5.894c0,-1.121 0.977,-2.106 2.106,-2.106l66.786,0c1.121,0 2.106,0.981 2.106,2.106l0,5.894c0,1.121 -0.981,2.106 -2.106,2.106l-27.502,0l0,86.015c0,1.125 -0.981,2.106 -2.106,2.106l-7.861,0c-1.121,0 -2.106,-0.977 -2.106,-2.106l0,-86.015l0.008,0Z" style="fill:#444446;fill-rule:nonzero;"/><path d="M1406.534,485.333l0,33.257l49.531,0c1.121,0 2.106,0.981 2.106,2.106l0,5.894c0,1.121 -0.981,2.106 -2.106,2.106l-59.354,0c-1.121,0 -2.106,-0.981 -2.106,-2.106l0,-94.012c0,-1.121 0.981,-2.106 2.106,-2.106l59.354,0c1.121,0 2.106,0.981 2.106,2.106l0,5.894c0,1.121 -0.981,2.106 -2.106,2.106l-49.531,0l0,34.658l38.306,0c1.117,0 2.102,0.981 2.102,2.102l0,5.898c0,1.117 -0.981,2.102 -2.102,2.102l-38.306,0l0,-0.008Z" style="fill:#444446;fill-rule:nonzero;"/><path d="M1561.254,527.992c-0.417,1.121 -1.546,1.826 -2.667,1.826c-1.261,0 -2.246,-0.701 -2.803,-1.826l-28.904,-69.036l-21.612,67.775c-0.28,1.121 -1.402,1.966 -2.667,1.966l-8.698,0c-0.981,0 -1.83,-0.981 -1.405,-1.966l30.87,-95.557c0.284,-0.841 1.261,-1.542 2.246,-1.542c0.985,0 1.966,0.561 2.387,1.542l30.59,74.366l30.73,-74.366c0.28,-0.981 1.261,-1.542 2.106,-1.542c0.981,0 1.826,0.561 2.246,1.542l31.014,95.557c0.417,0.981 -0.424,1.966 -1.405,1.966l-8.698,0c-1.265,0 -2.39,-0.841 -2.807,-1.966l-21.612,-67.915l-28.904,69.176l-0.008,-0Z" style="fill:#444446;fill-rule:nonzero;"/><path d="M1719.86,501.611l-39.015,0l-10.103,25.116c-0.561,1.261 -1.682,1.966 -2.943,1.966l-8.842,0c-0.981,0 -1.69,-0.981 -1.261,-1.966l39.848,-95.277c0.424,-1.117 1.542,-1.822 2.807,-1.822c1.121,0 2.106,0.701 2.531,1.822l40.549,95.277c0.42,0.981 -0.28,1.966 -1.261,1.966l-9.122,0c-1.258,0 -2.383,-0.701 -2.947,-1.966l-10.239,-25.116Zm-35.087,-9.823l31.01,0l-15.577,-38.306l-15.433,38.306Z" style="fill:#444446;fill-rule:nonzero;"/><path d="M1847.841,528.689c-1.261,0 -2.246,-0.981 -2.246,-2.246l0,-95.273c0,-0.981 0.841,-1.822 1.682,-1.822c1.125,0 2.25,0.417 3.087,1.258l58.236,59.213l0,-57.107c0,-1.261 0.981,-2.246 2.246,-2.246l12.766,0c1.261,0 2.25,0.981 2.25,2.246l0,95.417c0,0.981 -0.845,1.826 -1.97,1.826c-1.125,0 -2.243,-0.42 -3.084,-1.402l-57.952,-60.335l0,58.232c0,1.261 -0.981,2.246 -2.25,2.246l-12.766,0l0,-0.008Z" style="fill:#444446;fill-rule:nonzero;"/><path d="M2025.193,501.611l-39.015,0l-10.103,25.116c-0.561,1.261 -1.682,1.966 -2.943,1.966l-8.842,0c-0.981,0 -1.69,-0.981 -1.261,-1.966l39.848,-95.277c0.424,-1.117 1.542,-1.822 2.807,-1.822c1.121,0 2.106,0.701 2.531,1.822l40.549,95.277c0.42,0.981 -0.28,1.966 -1.261,1.966l-9.122,0c-1.258,0 -2.383,-0.701 -2.947,-1.966l-10.239,-25.116Zm-35.087,-9.823l31.01,0l-15.577,-38.306l-15.433,38.306Z" style="fill:#444446;fill-rule:nonzero;"/><path d="M2154.022,449.41c-0.841,0.705 -2.243,0.705 -3.087,0c-6.451,-5.33 -16.554,-10.38 -26.377,-10.38c-31.847,0 -36.344,30.169 -36.344,40.132c0,9.963 4.493,39.992 36.344,39.992c10.524,0 19.926,-4.777 26.661,-9.963c0.981,-0.705 2.246,-0.565 2.947,0.276c1.402,1.826 2.807,3.372 4.349,5.194c0.701,0.981 0.561,2.246 -0.28,3.087c-8.557,7.436 -18.941,12.209 -33.677,12.209c-37.465,0 -48.55,-29.749 -48.55,-50.792c0,-21.043 11.084,-50.376 48.55,-50.376c15.297,0 25.536,5.194 33.817,13.191c0.841,0.841 0.841,2.246 0,3.087l-4.349,4.345l-0.004,-0.004Z" style="fill:#444446;fill-rule:nonzero;"/><path d="M2210.191,435.879l0,87.4c0,2.986 -2.424,5.41 -5.41,5.41l-1.109,0c-2.986,0 -5.41,-2.424 -5.41,-5.41l0,-87.4c0,-2.986 2.424,-5.41 5.41,-5.41l1.109,0c2.986,0 5.41,2.424 5.41,5.41Z" style="fill:#444446;"/><path d="M2348.45,479.439c0,21.047 -11.088,50.516 -48.55,50.516c-37.461,0 -48.55,-29.468 -48.55,-50.516c0,-21.047 11.084,-50.372 48.55,-50.372c37.465,0 48.55,29.889 48.55,50.372m-12.346,0c0,-9.963 -4.489,-39.428 -36.204,-39.428c-31.715,0 -36.344,29.461 -36.344,39.428c0,9.967 4.489,39.716 36.344,39.716c31.855,0 36.204,-29.753 36.204,-39.716" style="fill:#444446;fill-rule:nonzero;"/><path d="M2392.02,528.689c-1.121,0 -2.106,-0.981 -2.106,-2.106l0,-94.853c0,-1.121 0.981,-2.106 2.106,-2.106l0.14,0c1.258,0 2.667,0.561 3.508,1.542l61.32,70.862l0,-69.457c0,-1.121 0.981,-2.106 2.106,-2.106l7.717,0c1.121,0 2.106,0.981 2.106,2.106l0,94.993c0,1.121 -0.981,1.966 -2.106,1.966c-1.265,0 -2.531,-0.561 -3.372,-1.542l-61.456,-71.142l0,69.737c0,1.121 -0.981,2.106 -2.106,2.106l-7.861,0l0.004,0Z" style="fill:#444446;fill-rule:nonzero;"/><path d="M2568.251,501.611l-39.015,0l-10.103,25.116c-0.561,1.261 -1.682,1.966 -2.943,1.966l-8.842,0c-0.981,0 -1.69,-0.981 -1.261,-1.966l39.848,-95.277c0.424,-1.117 1.542,-1.822 2.807,-1.822c1.121,0 2.106,0.701 2.531,1.822l40.549,95.277c0.42,0.981 -0.28,1.966 -1.261,1.966l-9.122,0c-1.258,0 -2.383,-0.701 -2.947,-1.966l-10.239,-25.116Zm-35.087,-9.823l31.01,0l-15.577,-38.306l-15.433,38.306Z" style="fill:#444446;fill-rule:nonzero;"/><path d="M2640.912,518.586l36.48,0c1.121,0 2.106,0.981 2.106,2.106l0,5.894c0,1.121 -0.981,2.106 -2.106,2.106l-46.303,0c-1.121,0 -2.106,-0.981 -2.106,-2.106l0,-94.012c0,-1.125 0.981,-2.106 2.106,-2.106l7.717,0c1.121,0 2.106,0.977 2.106,2.106l0,86.015l0,-0.004Z" style="fill:#444446;fill-rule:nonzero;"/><path d="M1107.995,691.48c0.42,0.977 -0.276,2.106 -1.402,2.106l-17.259,0c-1.402,0 -2.807,-0.841 -3.228,-2.25l-8.561,-20.767l-30.309,0l-8.417,20.767c-0.565,1.405 -1.826,2.25 -3.228,2.25l-17.403,0c-1.117,0 -1.826,-1.125 -1.402,-2.106l43.079,-95.838c0.42,-0.841 1.398,-1.546 2.383,-1.546c1.125,0 2.106,0.701 2.531,1.546l43.216,95.838Zm-54.44,-36.624l17.68,0l-8.838,-22.028l-8.842,22.028Z" style="fill:#444446;fill-rule:nonzero;"/><path d="M1156.747,693.583c-1.261,0 -2.387,-1.121 -2.387,-2.387l0,-94.989c0,-1.125 0.841,-1.966 1.822,-1.966c1.265,0 2.39,0.417 3.372,1.398l55.705,55.429l0,-53.323c0,-1.261 1.121,-2.387 2.387,-2.387l15.153,0c1.261,0 2.387,1.121 2.387,2.387l0,94.993c0,0.981 -0.701,1.686 -1.686,1.686c-1.121,0 -2.106,-0.42 -2.943,-1.121l-56.27,-56.827l0,54.724c0,1.261 -1.121,2.387 -2.387,2.387l-15.153,0l0,-0.004Z" style="fill:#444446;fill-rule:nonzero;"/><path d="M1308.528,613.602l-24.135,0c-1.261,0 -2.387,-1.121 -2.387,-2.383l0,-13.471c0,-1.265 1.121,-2.39 2.387,-2.39l68.616,0c1.258,0 2.383,1.121 2.383,2.39l0,13.471c0,1.258 -1.121,2.383 -2.383,2.383l-24.419,0l0,77.594c0,1.261 -1.121,2.39 -2.387,2.39l-15.293,0c-1.261,0 -2.387,-1.125 -2.387,-2.39l0,-77.594l0.004,0Z" style="fill:#444446;fill-rule:nonzero;"/><path d="M1422.138,601.488l0,85.96c0,3.383 -2.747,6.13 -6.13,6.13l-7.662,0c-3.383,0 -6.13,-2.747 -6.13,-6.13l0,-85.96c0,-3.383 2.747,-6.13 6.13,-6.13l7.662,0c3.383,0 6.13,2.747 6.13,6.13Z" style="fill:#444446;"/><path d="M1548.601,623.281c-0.845,0.981 -2.387,0.845 -3.228,-0.136c-5.754,-5.758 -15.437,-10.664 -23.714,-10.664c-25.116,0 -28.628,23.854 -28.628,31.847c0,7.993 3.652,31.715 28.764,31.715c8.561,0 17.96,-4.489 24.559,-9.823c0.981,-0.841 2.523,-0.701 3.364,0.28l8.141,9.963c0.845,0.981 0.845,2.527 -0.14,3.508c-9.823,9.122 -21.187,14.872 -36.06,14.872c-37.465,0 -48.83,-29.465 -48.83,-50.516c0,-21.051 11.365,-50.368 48.83,-50.368c15.994,0 27.218,6.591 36.765,16.695c0.837,0.841 0.837,2.387 -0.144,3.368l-9.679,9.258Z" style="fill:#444446;fill-rule:nonzero;"/><path d="M1698.38,644.328c0,21.047 -11.368,50.792 -48.553,50.792c-37.185,0 -48.83,-29.749 -48.83,-50.792c0,-21.043 11.365,-50.652 48.83,-50.652c37.465,0 48.553,30.169 48.553,50.652m-20.206,0c0,-8.001 -3.648,-32.128 -28.343,-32.128c-24.695,0 -28.624,24.131 -28.624,32.128c0,7.997 3.508,32.412 28.624,32.412c25.116,0 28.343,-24.415 28.343,-32.412" style="fill:#444446;fill-rule:nonzero;"/><path d="M1769.013,691.196c0,1.261 -1.121,2.387 -2.383,2.387l-14.872,0c-1.265,0 -2.39,-1.121 -2.39,-2.387l0,-93.451c0,-1.261 1.121,-2.387 2.39,-2.387l34.795,0c26.942,0 35.079,18.805 35.079,31.855c0,14.172 -8.281,24.415 -19.361,29.18l16.554,35.079c0.42,0.981 -0.28,2.106 -1.402,2.106l-16.835,0c-1.402,0 -2.811,-0.837 -3.368,-2.106l-15.016,-31.991l-13.191,0l-0,31.715Zm32.692,-63.979c0,-4.777 -2.523,-13.751 -14.452,-13.751l-18.244,0l0,27.642l18.805,0c11.368,-0.28 13.887,-9.543 13.887,-13.887" style="fill:#444446;fill-rule:nonzero;"/><path d="M1892.197,691.196c0,1.261 -1.121,2.387 -2.383,2.387l-14.872,0c-1.265,0 -2.39,-1.121 -2.39,-2.387l0,-93.451c0,-1.261 1.121,-2.387 2.39,-2.387l34.795,0c26.942,0 35.079,18.805 35.079,31.855c0,14.172 -8.281,24.415 -19.361,29.18l16.554,35.079c0.42,0.981 -0.28,2.106 -1.402,2.106l-16.835,0c-1.402,0 -2.811,-0.837 -3.368,-2.106l-15.016,-31.991l-13.191,0l-0,31.715Zm32.692,-63.979c0,-4.777 -2.523,-13.751 -14.452,-13.751l-18.244,0l0,27.642l18.805,0c11.368,-0.28 13.887,-9.543 13.887,-13.887" style="fill:#444446;fill-rule:nonzero;"/><path d="M2051.792,655.417l0,-57.668c0,-1.261 1.121,-2.387 2.387,-2.387l15.297,0c1.258,0 2.383,1.121 2.383,2.387l0,57.668c0,16.558 -10.099,39.151 -39.003,39.151c-28.904,0 -39.007,-22.589 -39.007,-39.151l0,-57.668c0,-1.261 1.121,-2.387 2.387,-2.387l15.157,0c1.258,0 2.383,1.121 2.383,2.387l0,57.668c0,5.754 3.928,21.047 19.085,21.047c15.157,0 18.941,-15.293 18.941,-21.047" style="fill:#444446;fill-rule:nonzero;"/><path d="M2146.999,691.196c0,1.261 -1.121,2.387 -2.387,2.387l-15.153,0c-1.261,0 -2.387,-1.121 -2.387,-2.387l0,-93.451c0,-1.261 1.121,-2.387 2.387,-2.387l35.075,0c26.942,0 35.079,18.805 35.079,31.855c0,19.361 -16.975,32.268 -33.253,32.268l-19.365,0l0,31.711l0.004,0.004Zm32.692,-63.979c0,-4.777 -2.523,-13.751 -14.452,-13.751l-18.244,0l0,27.642l18.805,0c11.368,-0.28 13.887,-9.543 13.887,-13.887" style="fill:#444446;fill-rule:nonzero;"/><path d="M2319.939,623.281c-0.845,0.981 -2.387,0.845 -3.228,-0.136c-5.754,-5.758 -15.437,-10.664 -23.714,-10.664c-25.116,0 -28.628,23.854 -28.628,31.847c0,7.993 3.652,31.715 28.764,31.715c8.561,0 17.96,-4.489 24.559,-9.823c0.981,-0.841 2.523,-0.701 3.368,0.28l8.137,9.963c0.841,0.981 0.841,2.527 -0.14,3.508c-9.823,9.122 -21.187,14.872 -36.06,14.872c-37.465,0 -48.83,-29.465 -48.83,-50.516c0,-21.051 11.365,-50.368 48.83,-50.368c15.994,0 27.218,6.591 36.765,16.695c0.837,0.841 0.837,2.387 -0.144,3.368l-9.679,9.258Z" style="fill:#444446;fill-rule:nonzero;"/><path d="M2399.484,601.488l0,85.96c0,3.383 -2.747,6.13 -6.13,6.13l-7.662,0c-3.383,0 -6.13,-2.747 -6.13,-6.13l0,-85.96c0,-3.383 2.747,-6.13 6.13,-6.13l7.662,0c3.383,0 6.13,2.747 6.13,6.13Z" style="fill:#444446;"/><path d="M2547.554,644.328c0,21.047 -11.368,50.792 -48.55,50.792c-37.181,0 -48.83,-29.749 -48.83,-50.792c0,-21.043 11.365,-50.652 48.83,-50.652c37.465,0 48.55,30.169 48.55,50.652m-20.202,0c0,-8.001 -3.648,-32.128 -28.343,-32.128c-24.695,0 -28.624,24.131 -28.624,32.128c0,7.997 3.508,32.412 28.624,32.412c25.116,0 28.343,-24.415 28.343,-32.412m-23.574,-87.697c0.981,-0.701 2.523,-0.561 3.228,0.565l6.311,8.838c0.841,1.121 0.424,2.527 -0.557,3.228l-20.49,12.626c-1.117,0.701 -2.527,0.424 -3.364,-0.697l-4.493,-6.455c-0.841,-1.125 -0.557,-2.667 0.424,-3.372l18.941,-14.732Z" style="fill:#444446;fill-rule:nonzero;"/><path d="M2600.939,693.583c-1.261,0 -2.387,-1.121 -2.387,-2.387l0,-94.989c0,-1.125 0.841,-1.966 1.822,-1.966c1.265,0 2.39,0.417 3.372,1.398l55.705,55.429l0,-53.323c0,-1.261 1.121,-2.387 2.387,-2.387l15.153,0c1.261,0 2.387,1.121 2.387,2.387l0,94.993c0,0.981 -0.701,1.686 -1.686,1.686c-1.121,0 -2.106,-0.42 -2.943,-1.121l-56.27,-56.827l0,54.724c0,1.261 -1.121,2.387 -2.387,2.387l-15.153,0l0,-0.004Z" style="fill:#444446;fill-rule:nonzero;"/></svg>